<svg id="svg" version="1.1" xmlns="http://www.w3.org/2000/svg" xmlns:xlink="http://www.w3.org/1999/xlink" width="400" height="400" viewBox="0, 0, 400,400"><g id="svgg"><path id="path0" d="M136.000 95.600 L 136.000 148.000 200.000 148.000 L 264.000 148.000 264.000 95.600 L 264.000 43.200 200.000 43.200 L 136.000 43.200 136.000 95.600 M189.301 58.500 C 192.418 60.250,192.505 60.896,192.331 81.001 L 192.200 96.203 190.858 97.677 C 188.898 99.830,187.535 100.000,172.214 100.000 L 158.867 100.000 158.734 114.965 L 158.600 129.929 156.931 131.565 C 154.200 134.242,149.470 133.629,147.790 130.381 C 147.068 128.984,146.881 61.200,147.600 61.200 C 147.820 61.200,148.000 60.943,148.000 60.629 C 148.000 60.315,148.585 59.597,149.300 59.033 L 150.600 58.009 169.505 58.004 C 183.895 58.001,188.623 58.119,189.301 58.500 M210.800 59.600 L 212.400 61.200 212.400 74.120 C 212.400 83.636,212.526 87.166,212.880 87.520 C 213.508 88.148,239.662 88.209,240.826 87.586 C 241.566 87.190,241.600 86.618,241.600 74.380 C 241.600 61.590,241.679 60.752,243.015 59.415 C 245.112 57.319,249.007 57.407,251.200 59.600 L 252.800 61.200 252.800 95.220 C 252.800 132.770,252.934 130.799,250.281 132.416 C 247.977 133.821,245.054 133.511,243.169 131.662 L 241.600 130.125 241.600 115.695 C 241.600 107.759,241.491 100.981,241.357 100.633 C 240.988 99.670,213.012 99.670,212.643 100.633 C 212.509 100.981,212.400 107.723,212.400 115.616 L 212.400 129.966 210.862 131.583 C 207.532 135.083,201.732 133.085,201.063 128.207 C 200.720 125.703,200.720 65.497,201.063 62.993 C 201.730 58.129,207.366 56.166,210.800 59.600 M159.280 69.680 C 158.467 70.493,158.611 87.442,159.433 87.757 C 160.258 88.074,179.342 88.074,180.167 87.757 C 181.240 87.345,181.107 70.192,180.026 69.614 C 178.874 68.997,159.902 69.058,159.280 69.680 M165.204 182.126 C 159.745 183.865,157.980 191.302,162.006 195.599 C 168.248 202.260,179.509 194.878,175.587 186.696 C 173.567 182.480,169.590 180.730,165.204 182.126 M229.204 182.126 C 227.516 182.664,224.400 185.673,224.400 186.766 C 224.400 187.199,224.220 187.664,224.000 187.800 C 223.333 188.212,223.551 191.019,224.405 193.011 C 228.090 201.609,240.400 198.854,240.400 189.430 C 240.400 188.669,240.220 187.936,240.000 187.800 C 239.780 187.664,239.600 187.244,239.600 186.868 C 239.600 183.616,233.402 180.789,229.204 182.126 " stroke="none" fill="#f8c9c4" fill-rule="evenodd"></path><path id="path1" d="M117.300 13.100 L 108.800 13.216 108.800 31.828 C 108.800 52.322,108.857 51.819,106.300 53.731 C 105.585 54.266,104.145 54.827,103.100 54.977 L 101.200 55.249 101.200 62.527 L 101.200 69.805 102.794 70.303 C 103.670 70.576,104.606 70.800,104.874 70.800 C 105.142 70.800,106.135 71.619,107.081 72.620 L 108.800 74.440 108.800 127.968 L 108.800 181.496 110.480 182.848 C 112.063 184.122,114.443 186.108,115.453 187.000 C 115.702 187.220,116.602 187.967,117.453 188.660 C 118.304 189.354,119.390 190.254,119.868 190.660 C 121.197 191.794,123.964 194.117,124.932 194.914 C 125.410 195.306,126.520 196.231,127.400 196.969 C 128.280 197.707,130.710 199.722,132.800 201.447 C 134.890 203.171,136.690 204.678,136.800 204.796 C 136.910 204.914,137.990 205.815,139.200 206.798 C 140.410 207.781,141.670 208.869,142.000 209.215 C 142.330 209.561,142.977 210.105,143.437 210.422 C 143.898 210.740,145.141 211.720,146.200 212.600 C 151.884 217.321,156.223 220.979,156.400 221.198 C 156.510 221.335,156.999 221.719,157.486 222.051 C 158.310 222.613,160.374 224.354,163.935 227.491 L 165.400 228.781 200.000 228.790 L 234.600 228.799 235.666 227.900 C 236.253 227.405,237.066 226.730,237.473 226.400 C 240.315 224.095,242.630 222.177,242.800 221.988 C 242.910 221.865,247.320 218.174,252.600 213.785 C 257.880 209.397,262.650 205.421,263.200 204.951 C 263.750 204.480,266.540 202.164,269.400 199.804 C 272.260 197.444,275.052 195.127,275.604 194.656 C 276.156 194.185,277.596 192.990,278.804 192.000 C 280.012 191.010,281.450 189.793,282.000 189.295 C 282.550 188.797,284.834 186.907,287.075 185.095 L 291.150 181.800 291.175 97.300 L 291.200 12.800 208.500 12.892 C 163.015 12.942,121.975 13.036,117.300 13.100 M271.807 30.263 C 274.166 30.586,276.349 32.585,277.100 35.108 C 277.805 37.475,277.832 153.733,277.128 156.082 C 276.591 157.876,274.729 160.009,273.081 160.718 C 271.437 161.426,128.532 161.417,126.919 160.709 C 125.304 160.000,123.469 158.022,122.896 156.372 C 121.542 152.474,122.318 33.200,123.697 33.200 C 123.864 33.200,124.000 32.945,124.000 32.634 C 124.000 32.322,124.540 31.828,125.200 31.536 C 125.860 31.244,126.400 30.880,126.400 30.728 C 126.400 30.087,267.237 29.637,271.807 30.263 M174.000 169.058 C 185.131 172.120,193.398 187.258,188.764 196.095 C 188.564 196.477,188.403 197.017,188.406 197.295 C 188.433 199.461,182.358 206.942,179.400 208.386 C 178.740 208.708,177.750 209.267,177.200 209.629 C 176.140 210.325,175.508 210.501,170.900 211.380 C 157.617 213.914,144.085 200.403,146.614 187.132 C 147.508 182.440,147.665 181.931,148.916 179.651 C 153.914 170.544,163.967 166.299,174.000 169.058 M237.400 168.867 C 255.382 172.829,259.500 200.254,243.336 208.399 C 242.711 208.714,241.750 209.267,241.200 209.629 C 240.140 210.325,239.508 210.501,234.900 211.380 C 232.431 211.851,231.569 211.851,229.100 211.380 C 224.418 210.487,223.855 210.324,222.738 209.543 C 222.154 209.134,221.514 208.800,221.316 208.800 C 219.746 208.800,213.667 202.187,212.123 198.800 C 210.242 194.674,209.774 186.757,211.242 183.905 C 211.439 183.523,211.600 182.949,211.600 182.630 C 211.600 181.827,213.949 177.621,215.075 176.406 C 215.584 175.857,216.000 175.293,216.000 175.153 C 216.000 174.758,219.988 171.794,222.000 170.694 C 226.606 168.174,231.577 167.584,237.400 168.867 M178.300 242.298 L 169.600 242.416 169.600 284.408 L 169.600 326.400 200.002 326.400 L 230.404 326.400 230.302 284.300 L 230.200 242.200 208.600 242.190 C 196.720 242.185,183.085 242.233,178.300 242.298 M183.200 363.179 L 183.200 386.359 189.100 386.583 C 192.345 386.707,199.905 386.904,205.900 387.022 L 216.800 387.236 216.800 363.618 L 216.800 340.000 200.000 340.000 L 183.200 340.000 183.200 363.179 " stroke="none" fill="#54b6e4" fill-rule="evenodd"></path><path id="path2" d="M97.700 0.846 C 96.985 1.304,96.400 1.931,96.400 2.239 C 96.400 2.548,96.220 2.800,96.000 2.800 C 95.780 2.800,95.600 3.329,95.600 3.976 C 95.600 4.623,95.420 5.264,95.200 5.400 C 94.650 5.740,94.650 49.060,95.200 49.400 C 95.420 49.536,95.600 50.177,95.600 50.824 C 95.600 51.471,95.737 52.000,95.905 52.000 C 96.073 52.000,96.388 52.405,96.605 52.900 C 96.822 53.395,97.405 53.978,97.900 54.195 C 98.395 54.412,98.800 54.727,98.800 54.895 C 98.800 55.306,101.342 55.285,101.820 54.870 C 102.029 54.688,102.959 54.301,103.886 54.010 C 108.294 52.627,108.387 52.142,108.394 30.500 L 108.400 12.400 200.000 12.400 L 291.600 12.400 291.600 97.323 L 291.600 182.246 286.557 186.423 C 283.783 188.720,281.308 190.781,281.057 191.002 C 280.806 191.223,279.610 192.212,278.400 193.200 C 277.190 194.188,275.971 195.214,275.690 195.480 C 275.410 195.745,274.332 196.646,273.296 197.481 C 272.260 198.317,270.870 199.473,270.206 200.051 C 269.543 200.629,267.650 202.211,266.000 203.567 C 264.350 204.923,262.139 206.777,261.086 207.688 C 260.034 208.599,258.774 209.621,258.286 209.960 C 257.799 210.299,257.026 210.942,256.568 211.388 C 256.110 211.835,253.970 213.640,251.811 215.400 C 249.653 217.160,247.687 218.781,247.443 219.002 C 247.200 219.223,246.010 220.210,244.800 221.196 C 243.590 222.182,242.510 223.084,242.400 223.200 C 242.290 223.316,241.210 224.218,240.000 225.204 C 238.790 226.190,237.260 227.491,236.600 228.096 L 235.400 229.196 199.998 229.198 L 164.596 229.200 162.987 227.700 C 162.102 226.875,160.724 225.708,159.924 225.106 C 159.124 224.504,158.229 223.782,157.935 223.501 C 157.641 223.221,155.240 221.200,152.600 219.010 C 149.960 216.821,147.710 214.931,147.600 214.809 C 147.490 214.688,146.410 213.784,145.200 212.800 C 143.990 211.816,142.910 210.916,142.800 210.800 C 142.601 210.590,138.898 207.542,137.454 206.400 C 136.523 205.664,133.358 203.020,132.000 201.846 C 131.450 201.370,129.470 199.728,127.600 198.197 C 125.730 196.666,124.110 195.318,124.000 195.201 C 123.890 195.085,122.810 194.184,121.600 193.200 C 120.390 192.216,119.310 191.314,119.200 191.196 C 119.090 191.078,116.840 189.190,114.200 187.000 C 111.560 184.810,109.175 182.802,108.900 182.538 C 108.505 182.158,108.400 170.968,108.400 129.224 C 108.400 77.142,108.389 76.367,107.596 74.696 C 106.712 72.829,104.572 71.200,103.006 71.200 C 102.453 71.200,102.000 71.039,102.000 70.843 C 102.000 70.272,100.706 69.934,100.253 70.387 C 100.026 70.614,99.495 70.800,99.074 70.800 C 97.824 70.800,95.600 73.539,95.600 75.078 C 95.600 75.805,95.420 76.400,95.200 76.400 C 94.646 76.400,94.646 185.058,95.200 185.400 C 95.420 185.536,95.600 186.245,95.600 186.975 C 95.600 187.990,95.970 188.668,97.168 189.852 C 99.351 192.007,101.713 194.000,102.084 194.000 C 102.256 194.000,103.315 194.900,104.439 196.000 C 105.562 197.100,106.638 198.000,106.830 198.000 C 107.022 198.000,107.978 198.765,108.954 199.700 C 112.039 202.656,113.790 204.196,115.216 205.210 C 115.977 205.751,117.197 206.756,117.927 207.444 C 118.657 208.131,119.735 208.943,120.322 209.247 C 120.910 209.551,122.146 210.520,123.070 211.400 C 126.322 214.498,127.845 215.835,129.216 216.797 C 129.977 217.332,131.050 218.233,131.600 218.800 C 132.150 219.367,133.230 220.270,134.000 220.807 C 134.770 221.343,135.779 222.147,136.241 222.591 C 137.911 224.196,139.214 225.200,139.629 225.200 C 139.862 225.200,140.929 226.100,142.000 227.200 C 143.071 228.300,144.064 229.200,144.205 229.200 C 144.347 229.200,145.154 229.920,146.000 230.800 C 146.846 231.680,147.707 232.400,147.915 232.400 C 148.123 232.400,149.323 233.390,150.582 234.600 C 151.842 235.810,153.017 236.800,153.194 236.800 C 153.371 236.800,154.074 237.322,154.758 237.960 L 156.000 239.121 156.000 287.360 C 156.000 319.253,156.136 335.600,156.400 335.600 C 156.620 335.600,156.800 335.960,156.800 336.400 C 156.800 336.840,156.980 337.200,157.200 337.200 C 157.420 337.200,157.600 337.470,157.600 337.800 C 157.600 338.130,157.767 338.400,157.971 338.400 C 158.176 338.400,158.581 338.625,158.871 338.900 C 159.902 339.875,162.302 340.400,165.728 340.400 L 169.200 340.400 169.200 367.576 C 169.200 385.263,169.340 394.839,169.600 395.000 C 169.820 395.136,170.000 395.687,170.000 396.224 C 170.000 396.761,170.180 397.200,170.400 397.200 C 170.620 397.200,170.800 397.483,170.800 397.829 C 170.800 399.854,170.002 399.800,200.000 399.800 C 229.998 399.800,229.200 399.854,229.200 397.829 C 229.200 397.483,229.380 397.200,229.600 397.200 C 229.820 397.200,230.000 396.660,230.000 396.000 C 230.000 395.340,230.180 394.800,230.400 394.800 C 230.663 394.800,230.800 385.467,230.800 367.600 L 230.800 340.400 234.300 340.394 C 238.620 340.387,242.400 339.131,242.400 337.704 C 242.400 337.427,242.580 337.200,242.800 337.200 C 243.020 337.200,243.200 336.840,243.200 336.400 C 243.200 335.960,243.380 335.600,243.600 335.600 C 243.864 335.600,244.000 319.253,244.000 287.360 L 244.000 239.121 245.242 237.960 C 245.926 237.322,246.629 236.800,246.806 236.800 C 246.983 236.800,248.158 235.810,249.418 234.600 C 250.677 233.390,251.877 232.400,252.085 232.400 C 252.293 232.400,253.154 231.680,254.000 230.800 C 254.846 229.920,255.659 229.200,255.808 229.200 C 255.957 229.200,256.961 228.300,258.038 227.200 C 259.115 226.100,260.176 225.200,260.395 225.200 C 260.788 225.200,262.117 224.170,263.759 222.591 C 264.221 222.147,265.230 221.343,266.000 220.807 C 266.770 220.270,267.850 219.367,268.400 218.800 C 268.950 218.233,270.023 217.332,270.784 216.797 C 272.155 215.835,273.678 214.498,276.930 211.400 C 277.854 210.520,279.090 209.551,279.678 209.247 C 280.265 208.943,281.343 208.131,282.073 207.444 C 282.803 206.756,284.023 205.751,284.784 205.210 C 286.210 204.196,287.961 202.656,291.046 199.700 C 292.022 198.765,292.978 198.000,293.170 198.000 C 293.362 198.000,294.438 197.100,295.561 196.000 C 296.685 194.900,297.744 194.000,297.916 194.000 C 298.287 194.000,300.649 192.007,302.832 189.852 C 304.030 188.668,304.400 187.990,304.400 186.975 C 304.400 186.245,304.580 185.536,304.800 185.400 C 305.065 185.236,305.200 154.804,305.200 95.400 C 305.200 35.996,305.065 5.564,304.800 5.400 C 304.580 5.264,304.400 4.623,304.400 3.976 C 304.400 3.329,304.220 2.800,304.000 2.800 C 303.780 2.800,303.600 2.545,303.600 2.233 C 303.600 1.921,302.994 1.291,302.253 0.833 L 300.906 0.000 199.953 0.007 L 99.000 0.013 97.700 0.846 M126.555 31.562 C 125.871 31.979,124.926 32.861,124.455 33.522 L 123.600 34.723 123.600 95.567 C 123.600 143.501,123.706 156.600,124.100 157.301 C 124.941 158.799,126.428 159.900,127.950 160.151 C 129.889 160.472,271.108 160.376,272.452 160.053 C 273.773 159.735,275.600 158.373,275.600 157.705 C 275.600 157.427,275.780 157.200,276.000 157.200 C 276.265 157.200,276.400 136.466,276.400 95.797 L 276.400 34.393 275.300 33.156 C 273.044 30.620,278.796 30.800,199.920 30.801 C 129.807 30.803,127.765 30.824,126.555 31.562 M265.101 95.124 C 265.171 130.598,265.070 147.495,264.787 148.024 C 264.379 148.787,263.313 148.800,199.976 148.800 L 135.580 148.800 135.190 147.774 C 134.749 146.615,134.636 57.842,135.064 48.499 L 135.325 42.798 200.162 42.899 L 265.000 43.000 265.101 95.124 M162.876 169.583 C 147.000 173.888,141.823 193.244,153.399 205.015 C 154.478 206.112,157.839 208.400,158.372 208.400 C 158.607 208.400,158.800 208.580,158.800 208.800 C 158.800 209.020,159.072 209.200,159.405 209.200 C 159.738 209.200,160.323 209.358,160.705 209.551 C 162.476 210.445,164.548 210.800,168.000 210.800 C 171.452 210.800,173.524 210.445,175.295 209.551 C 175.677 209.358,176.262 209.200,176.595 209.200 C 176.928 209.200,177.200 209.020,177.200 208.800 C 177.200 208.580,177.560 208.400,178.000 208.400 C 178.440 208.400,178.800 208.220,178.800 208.000 C 178.800 207.780,179.050 207.600,179.356 207.600 C 180.089 207.600,184.968 202.730,185.772 201.197 C 186.117 200.539,186.694 199.439,187.053 198.753 C 188.733 195.543,189.359 187.563,188.200 184.125 C 184.421 172.915,173.569 166.684,162.876 169.583 M226.953 169.564 C 221.981 170.914,214.400 176.363,214.400 178.586 C 214.400 178.887,214.257 179.193,214.081 179.267 C 213.615 179.462,212.000 183.069,212.000 183.916 C 212.000 184.314,211.809 184.831,211.575 185.065 C 211.051 185.589,211.284 193.957,211.881 196.053 C 213.205 200.705,217.760 206.364,221.518 208.028 C 222.223 208.340,222.800 208.731,222.800 208.898 C 222.800 209.064,223.072 209.200,223.405 209.200 C 223.738 209.200,224.323 209.358,224.705 209.551 C 226.476 210.445,228.548 210.800,232.000 210.800 C 235.452 210.800,237.524 210.445,239.295 209.551 C 239.677 209.358,240.262 209.200,240.595 209.200 C 240.928 209.200,241.200 209.020,241.200 208.800 C 241.200 208.580,241.560 208.400,242.000 208.400 C 242.440 208.400,242.800 208.232,242.800 208.027 C 242.800 207.822,243.155 207.541,243.588 207.404 C 244.765 207.030,248.614 203.061,249.859 200.936 C 254.246 193.450,253.770 183.351,248.746 177.339 C 248.167 176.645,247.627 175.925,247.546 175.739 C 247.327 175.231,243.586 172.303,242.104 171.480 C 237.720 169.043,231.681 168.279,226.953 169.564 M172.709 182.074 C 173.428 182.515,174.507 183.534,175.106 184.338 C 175.705 185.142,176.313 185.890,176.456 186.000 C 176.743 186.221,176.992 189.800,176.875 192.025 C 176.834 192.808,176.476 193.798,176.080 194.225 C 175.684 194.651,175.246 195.298,175.107 195.662 C 173.329 200.320,163.148 199.859,160.463 195.000 C 160.098 194.340,159.649 193.690,159.465 193.555 C 159.281 193.420,159.124 191.864,159.116 190.098 C 159.085 182.845,166.664 178.370,172.709 182.074 M236.872 182.217 C 242.414 185.822,242.425 194.030,236.893 197.691 C 234.629 199.189,229.267 199.429,227.754 198.100 C 227.315 197.715,226.618 197.208,226.205 196.973 C 225.792 196.739,225.261 196.208,225.027 195.795 C 224.792 195.382,224.285 194.685,223.900 194.246 C 223.166 193.410,222.970 191.922,223.159 188.619 C 223.512 182.466,231.513 178.731,236.872 182.217 M231.102 283.975 C 231.183 317.771,231.100 326.616,230.702 326.869 C 229.830 327.423,169.837 327.277,169.280 326.720 C 168.565 326.005,168.585 241.754,169.300 241.464 C 169.575 241.352,183.570 241.292,200.400 241.330 L 231.000 241.400 231.102 283.975 M217.120 339.280 C 217.483 339.643,217.600 345.610,217.600 363.684 L 217.600 387.608 200.100 387.504 L 182.600 387.400 182.497 363.645 C 182.422 346.432,182.518 339.740,182.846 339.345 C 183.468 338.596,216.373 338.533,217.120 339.280 " stroke="none" fill="#040404" fill-rule="evenodd"></path><path id="path3" d="M167.132 12.700 C 189.864 12.757,226.944 12.757,249.532 12.700 C 272.119 12.643,253.520 12.596,208.200 12.596 C 162.880 12.596,144.399 12.643,167.132 12.700 M112.900 13.098 C 115.265 13.169,119.135 13.169,121.500 13.098 C 123.865 13.028,121.930 12.970,117.200 12.970 C 112.470 12.970,110.535 13.028,112.900 13.098 M291.396 97.600 C 291.396 143.910,291.443 162.855,291.500 139.700 C 291.557 116.545,291.557 78.655,291.500 55.500 C 291.443 32.345,291.396 51.290,291.396 97.600 M164.300 30.300 C 183.935 30.357,216.065 30.357,235.700 30.300 C 255.335 30.243,239.270 30.196,200.000 30.196 C 160.730 30.196,144.665 30.243,164.300 30.300 M273.651 31.202 C 274.449 31.624,275.481 32.561,275.944 33.284 C 276.407 34.008,276.790 34.375,276.793 34.100 C 276.804 33.338,273.695 30.398,272.900 30.418 C 272.476 30.428,272.773 30.738,273.651 31.202 M124.700 31.757 C 124.315 32.049,124.000 32.493,124.000 32.744 C 124.000 32.995,123.820 33.200,123.600 33.200 C 123.380 33.200,123.201 33.515,123.203 33.900 C 123.205 34.420,123.393 34.315,123.935 33.494 C 124.336 32.885,125.010 32.126,125.432 31.806 C 125.854 31.487,126.020 31.225,125.800 31.225 C 125.580 31.225,125.085 31.465,124.700 31.757 M122.643 35.433 C 122.292 36.346,122.355 155.310,122.706 155.862 C 122.868 156.116,123.000 128.981,123.000 95.562 C 123.000 62.143,122.974 34.800,122.943 34.800 C 122.911 34.800,122.776 35.085,122.643 35.433 M277.000 95.823 C 277.000 129.124,277.122 156.062,277.272 155.685 C 277.642 154.753,277.664 36.319,277.294 35.738 C 277.132 35.484,277.000 62.523,277.000 95.823 M108.454 49.553 C 108.364 51.133,106.882 53.076,105.090 53.963 C 104.083 54.461,103.708 54.799,104.162 54.800 C 106.056 54.800,109.032 51.290,108.679 49.473 C 108.518 48.647,108.506 48.652,108.454 49.553 M102.148 70.317 C 102.302 70.565,103.069 70.889,103.852 71.036 C 105.578 71.360,107.831 73.496,108.353 75.303 C 108.714 76.551,108.729 76.559,108.764 75.520 C 108.808 74.204,105.909 71.003,104.400 70.702 C 103.850 70.593,103.055 70.359,102.634 70.183 C 102.105 69.963,101.955 70.004,102.148 70.317 M123.200 157.151 C 123.200 157.417,123.675 158.122,124.256 158.717 L 125.312 159.800 124.386 158.400 C 123.167 156.559,123.200 156.593,123.200 157.151 M127.338 160.894 C 127.592 161.056,160.290 161.188,200.000 161.188 C 239.710 161.188,272.408 161.056,272.662 160.894 C 272.916 160.732,240.218 160.600,200.000 160.600 C 159.782 160.600,127.084 160.732,127.338 160.894 M165.200 168.370 C 163.926 168.561,164.723 168.651,167.927 168.680 C 170.416 168.702,172.396 168.670,172.327 168.609 C 171.982 168.308,166.778 168.133,165.200 168.370 M229.200 168.370 C 227.926 168.561,228.723 168.651,231.927 168.680 C 234.416 168.702,236.396 168.670,236.327 168.609 C 235.982 168.308,230.778 168.133,229.200 168.370 M161.400 169.200 C 160.896 169.417,160.822 169.544,161.200 169.544 C 161.530 169.544,162.160 169.389,162.600 169.200 C 163.104 168.983,163.178 168.856,162.800 168.856 C 162.470 168.856,161.840 169.011,161.400 169.200 M173.400 169.200 C 173.840 169.389,174.470 169.544,174.800 169.544 C 175.178 169.544,175.104 169.417,174.600 169.200 C 174.160 169.011,173.530 168.856,173.200 168.856 C 172.822 168.856,172.896 168.983,173.400 169.200 M225.400 169.200 C 224.896 169.417,224.822 169.544,225.200 169.544 C 225.530 169.544,226.160 169.389,226.600 169.200 C 227.104 168.983,227.178 168.856,226.800 168.856 C 226.470 168.856,225.840 169.011,225.400 169.200 M238.000 169.251 C 241.084 170.577,241.600 170.771,241.600 170.604 C 241.600 170.292,239.462 169.325,238.200 169.067 C 237.055 168.833,237.046 168.841,238.000 169.251 M177.580 170.816 C 181.319 172.877,184.089 175.363,186.306 178.650 C 186.584 179.063,186.550 178.846,186.231 178.169 C 184.997 175.551,177.682 169.569,175.762 169.607 C 175.563 169.611,176.381 170.155,177.580 170.816 M155.106 172.507 C 153.844 173.438,152.809 174.369,152.806 174.575 C 152.803 174.781,153.295 174.491,153.900 173.931 C 154.505 173.370,155.717 172.437,156.593 171.856 C 157.469 171.275,158.009 170.803,157.793 170.807 C 157.577 170.811,156.368 171.576,155.106 172.507 M219.013 172.600 C 217.701 173.586,216.186 174.979,215.648 175.696 C 214.957 176.616,215.306 176.397,216.834 174.953 C 218.025 173.827,219.717 172.432,220.593 171.853 C 221.469 171.274,222.009 170.802,221.793 170.804 C 221.577 170.807,220.326 171.615,219.013 172.600 M243.600 171.996 C 246.586 173.974,249.415 177.079,250.949 180.061 C 251.747 181.613,252.400 182.656,252.400 182.380 C 252.400 180.341,247.221 173.834,243.962 171.776 C 241.754 170.382,241.446 170.569,243.600 171.996 M149.673 178.200 C 149.422 178.750,149.283 179.200,149.363 179.200 C 149.443 179.200,149.803 178.750,150.163 178.200 C 150.524 177.650,150.663 177.200,150.473 177.200 C 150.284 177.200,149.923 177.650,149.673 178.200 M213.673 178.200 C 213.422 178.750,213.283 179.200,213.363 179.200 C 213.443 179.200,213.803 178.750,214.163 178.200 C 214.524 177.650,214.663 177.200,214.473 177.200 C 214.284 177.200,213.923 177.650,213.673 178.200 M109.217 182.125 C 110.304 183.325,122.594 193.514,122.764 193.356 C 122.930 193.204,122.533 192.835,119.736 190.540 C 118.891 189.846,117.810 188.946,117.334 188.540 C 116.424 187.763,116.315 187.673,112.800 184.799 C 111.590 183.810,110.510 182.910,110.400 182.800 C 109.670 182.070,108.629 181.476,109.217 182.125 M285.865 186.017 C 283.260 188.208,281.252 190.000,281.403 190.000 C 281.720 190.000,290.800 182.441,290.800 182.177 C 290.800 181.872,290.706 181.945,285.865 186.017 M252.412 183.600 C 252.412 183.930,252.587 184.470,252.800 184.800 C 253.145 185.333,253.188 185.333,253.188 184.800 C 253.188 184.470,253.013 183.930,252.800 183.600 C 252.455 183.067,252.412 183.067,252.412 183.600 M189.338 189.800 C 189.344 192.838,189.399 193.141,189.688 191.739 C 189.881 190.806,189.878 189.229,189.682 188.139 C 189.365 186.385,189.332 186.543,189.338 189.800 M253.317 190.000 C 253.321 193.070,253.355 193.220,253.663 191.541 C 253.853 190.506,253.851 189.000,253.659 188.141 C 253.371 186.859,253.313 187.172,253.317 190.000 M146.261 188.708 C 146.128 189.537,146.180 190.752,146.376 191.408 C 146.670 192.395,146.737 192.135,146.766 189.900 C 146.804 186.880,146.622 186.450,146.261 188.708 M210.272 188.700 C 210.145 189.525,210.185 190.830,210.360 191.600 C 210.620 192.736,210.681 192.454,210.684 190.100 C 210.689 186.827,210.604 186.538,210.272 188.700 M279.592 191.313 C 279.038 191.801,278.065 192.608,277.431 193.106 C 276.797 193.604,276.350 194.083,276.439 194.171 C 276.528 194.259,277.590 193.452,278.800 192.378 C 280.010 191.304,280.910 190.425,280.800 190.425 C 280.690 190.425,280.146 190.825,279.592 191.313 M125.189 195.534 C 126.393 196.646,127.456 197.477,127.553 197.380 C 127.716 197.217,127.183 196.697,125.321 195.200 C 123.290 193.567,123.229 193.723,125.189 195.534 M271.600 198.043 L 269.400 200.077 271.499 198.402 C 273.356 196.920,274.296 195.991,273.924 196.004 C 273.856 196.007,272.810 196.924,271.600 198.043 M128.000 197.715 C 128.000 197.846,130.115 199.715,132.700 201.868 C 135.285 204.020,137.490 205.876,137.600 205.991 C 138.421 206.849,142.400 210.009,142.400 209.802 C 142.400 209.472,141.907 209.009,139.200 206.804 C 137.990 205.818,136.910 204.918,136.800 204.805 C 136.690 204.691,134.980 203.258,133.000 201.619 C 131.020 199.981,129.085 198.379,128.700 198.058 C 128.315 197.738,128.000 197.583,128.000 197.715 M149.000 200.400 C 149.341 201.060,149.711 201.600,149.821 201.600 C 149.931 201.600,149.741 201.060,149.400 200.400 C 149.059 199.740,148.689 199.200,148.579 199.200 C 148.469 199.200,148.659 199.740,149.000 200.400 M212.409 199.500 C 212.414 199.665,212.785 200.250,213.233 200.800 L 214.048 201.800 213.414 200.500 C 212.811 199.265,212.389 198.845,212.409 199.500 M266.600 202.070 C 265.280 203.182,263.750 204.476,263.199 204.946 C 262.649 205.416,260.084 207.566,257.499 209.723 C 254.915 211.881,252.800 213.758,252.800 213.893 C 252.800 214.029,253.205 213.776,253.700 213.333 C 254.195 212.889,257.885 209.786,261.900 206.438 C 268.159 201.217,269.649 199.890,269.100 200.024 C 269.045 200.038,267.920 200.959,266.600 202.070 M250.017 201.569 C 249.790 201.992,249.379 202.587,249.103 202.893 C 248.826 203.198,247.971 204.157,247.202 205.024 L 245.804 206.600 247.614 204.903 C 249.261 203.359,251.146 200.800,250.637 200.800 C 250.522 200.800,250.243 201.146,250.017 201.569 M151.122 203.500 C 151.777 204.325,152.728 205.360,153.236 205.800 C 153.744 206.240,153.279 205.565,152.203 204.300 C 150.013 201.724,149.290 201.189,151.122 203.500 M214.736 203.100 C 215.171 203.705,216.116 204.740,216.835 205.400 C 217.675 206.171,217.446 205.777,216.195 204.300 C 214.123 201.853,213.430 201.283,214.736 203.100 M183.218 204.934 L 181.837 206.600 183.518 205.019 C 184.443 204.149,185.200 203.384,185.200 203.319 C 185.200 202.859,184.394 203.516,183.218 204.934 M158.000 209.019 C 158.000 209.313,160.449 210.450,160.809 210.324 C 161.004 210.256,160.451 209.898,159.582 209.530 C 158.712 209.161,158.000 208.931,158.000 209.019 M176.200 209.622 C 175.160 210.114,174.880 210.380,175.400 210.381 C 175.840 210.381,176.650 210.030,177.200 209.600 C 178.422 208.644,178.259 208.648,176.200 209.622 M222.800 209.567 C 223.350 210.015,224.160 210.372,224.600 210.360 C 225.172 210.343,225.229 210.273,224.800 210.114 C 224.470 209.991,223.660 209.634,223.000 209.321 L 221.800 208.752 222.800 209.567 M240.200 209.622 C 239.160 210.114,238.880 210.380,239.400 210.381 C 239.840 210.381,240.650 210.030,241.200 209.600 C 242.422 208.644,242.259 208.648,240.200 209.622 M142.800 210.150 C 142.800 210.263,144.735 211.938,147.100 213.872 C 149.465 215.807,151.629 217.608,151.910 217.876 C 153.215 219.122,156.035 221.297,156.164 221.157 C 156.242 221.070,154.241 219.290,151.716 217.200 C 149.190 215.110,146.646 212.985,146.062 212.477 C 144.531 211.147,142.800 209.912,142.800 210.150 M162.000 210.794 C 162.330 211.011,163.035 211.191,163.567 211.194 C 164.851 211.202,164.525 210.975,162.800 210.658 C 161.815 210.477,161.578 210.518,162.000 210.794 M172.600 210.800 C 171.493 211.082,171.477 211.109,172.400 211.147 C 172.950 211.169,173.670 211.013,174.000 210.800 C 174.681 210.360,174.329 210.360,172.600 210.800 M226.000 210.794 C 226.330 211.011,227.035 211.191,227.567 211.194 C 228.851 211.202,228.525 210.975,226.800 210.658 C 225.815 210.477,225.578 210.518,226.000 210.794 M236.600 210.800 C 235.493 211.082,235.477 211.109,236.400 211.147 C 236.950 211.169,237.670 211.013,238.000 210.800 C 238.681 210.360,238.329 210.360,236.600 210.800 M166.500 211.634 C 167.369 211.839,168.631 211.839,169.500 211.634 C 170.801 211.327,170.602 211.280,168.000 211.280 C 165.398 211.280,165.199 211.327,166.500 211.634 M230.500 211.634 C 231.369 211.839,232.631 211.839,233.500 211.634 C 234.801 211.327,234.602 211.280,232.000 211.280 C 229.398 211.280,229.199 211.327,230.500 211.634 M248.558 217.120 C 246.555 218.814,243.983 220.993,242.842 221.962 C 241.702 222.932,240.152 224.192,239.399 224.762 C 238.646 225.333,238.023 225.969,238.015 226.175 C 238.007 226.381,238.495 226.098,239.100 225.547 C 239.705 224.995,242.852 222.339,246.094 219.643 C 251.221 215.381,252.816 213.941,252.324 214.020 C 252.256 214.031,250.561 215.426,248.558 217.120 M158.669 223.562 C 159.951 224.641,161.074 225.452,161.164 225.364 C 161.339 225.195,160.186 224.115,158.162 222.555 C 155.921 220.826,156.290 221.560,158.669 223.562 M162.200 226.350 C 162.640 226.865,163.540 227.650,164.200 228.095 L 165.400 228.904 164.197 227.752 C 162.293 225.927,161.159 225.131,162.200 226.350 M183.130 229.100 C 192.662 229.160,208.142 229.160,217.530 229.100 C 226.919 229.040,219.120 228.991,200.200 228.991 C 181.280 228.991,173.599 229.040,183.130 229.100 M169.398 242.500 C 169.278 242.995,169.231 262.120,169.292 285.000 L 169.404 326.600 169.502 284.547 L 169.600 242.494 186.900 242.220 C 196.415 242.070,210.050 242.004,217.200 242.073 L 230.200 242.200 230.302 284.297 L 230.404 326.395 200.302 326.501 L 170.200 326.608 200.400 326.604 L 230.600 326.600 230.710 285.000 C 230.770 262.120,230.722 242.995,230.602 242.500 L 230.385 241.600 200.000 241.600 L 169.615 241.600 169.398 242.500 M183.067 339.867 C 182.920 340.013,182.800 350.703,182.800 363.621 L 182.800 387.108 194.900 387.384 C 201.555 387.536,209.250 387.601,212.000 387.530 L 217.000 387.400 217.103 363.500 L 217.206 339.600 200.270 339.600 C 190.955 339.600,183.213 339.720,183.067 339.867 M216.800 363.618 L 216.800 387.236 205.900 387.022 C 199.905 386.904,192.345 386.707,189.100 386.583 L 183.200 386.359 183.200 363.179 L 183.200 340.000 200.000 340.000 L 216.800 340.000 216.800 363.618 " stroke="none" fill="#326e95" fill-rule="evenodd"></path><path id="path4" d="M167.900 43.100 C 185.555 43.158,214.445 43.158,232.100 43.100 C 249.755 43.042,235.310 42.995,200.000 42.995 C 164.690 42.995,150.245 43.042,167.900 43.100 M264.399 95.400 L 264.200 147.800 260.800 148.025 L 257.400 148.251 260.892 148.325 C 264.212 148.396,264.396 148.355,264.602 147.500 C 264.722 147.005,264.770 123.290,264.709 94.800 L 264.598 43.000 264.399 95.400 M135.298 98.467 C 135.203 145.892,135.242 148.400,136.092 148.400 C 136.346 148.400,136.331 148.199,136.051 147.861 C 135.727 147.472,135.575 133.785,135.500 98.561 L 135.397 49.800 135.298 98.467 " stroke="none" fill="#6b636a" fill-rule="evenodd"></path><path id="path5" d="M108.583 12.900 C 108.478 13.175,108.440 21.410,108.500 31.200 L 108.609 49.000 108.704 30.908 L 108.800 12.816 117.500 12.700 L 126.200 12.584 117.487 12.492 C 110.817 12.422,108.730 12.517,108.583 12.900 M122.995 95.600 C 122.995 128.490,123.042 141.945,123.100 125.500 C 123.158 109.055,123.158 82.145,123.100 65.700 C 123.042 49.255,122.995 62.710,122.995 95.600 M276.995 95.600 C 276.995 128.490,277.042 141.945,277.100 125.500 C 277.158 109.055,277.158 82.145,277.100 65.700 C 277.042 49.255,276.995 62.710,276.995 95.600 M135.369 43.335 C 135.256 43.630,135.219 45.295,135.286 47.035 L 135.408 50.200 135.604 46.499 C 135.799 42.818,135.762 42.313,135.369 43.335 M108.594 129.000 C 108.594 158.040,108.642 169.861,108.700 155.269 C 108.758 140.677,108.758 116.917,108.700 102.469 C 108.642 88.021,108.594 99.960,108.594 129.000 M275.199 158.500 C 274.610 159.304,274.513 159.584,274.945 159.233 C 275.601 158.700,276.593 157.200,276.289 157.200 C 276.213 157.200,275.722 157.785,275.199 158.500 M210.893 186.400 C 210.893 187.170,210.975 187.485,211.076 187.100 C 211.176 186.715,211.176 186.085,211.076 185.700 C 210.975 185.315,210.893 185.630,210.893 186.400 M152.800 205.000 C 153.546 205.770,154.247 206.400,154.357 206.400 C 154.467 206.400,153.946 205.770,153.200 205.000 C 152.454 204.230,151.753 203.600,151.643 203.600 C 151.533 203.600,152.054 204.230,152.800 205.000 M182.778 205.100 L 181.400 206.600 182.900 205.222 C 183.725 204.463,184.400 203.788,184.400 203.722 C 184.400 203.416,184.062 203.704,182.778 205.100 M216.800 205.000 C 217.546 205.770,218.247 206.400,218.357 206.400 C 218.467 206.400,217.946 205.770,217.200 205.000 C 216.454 204.230,215.753 203.600,215.643 203.600 C 215.533 203.600,216.054 204.230,216.800 205.000 M164.900 211.076 C 165.285 211.176,165.915 211.176,166.300 211.076 C 166.685 210.975,166.370 210.893,165.600 210.893 C 164.830 210.893,164.515 210.975,164.900 211.076 M169.700 211.076 C 170.085 211.176,170.715 211.176,171.100 211.076 C 171.485 210.975,171.170 210.893,170.400 210.893 C 169.630 210.893,169.315 210.975,169.700 211.076 M228.900 211.076 C 229.285 211.176,229.915 211.176,230.300 211.076 C 230.685 210.975,230.370 210.893,229.600 210.893 C 228.830 210.893,228.515 210.975,228.900 211.076 M233.700 211.076 C 234.085 211.176,234.715 211.176,235.100 211.076 C 235.485 210.975,235.170 210.893,234.400 210.893 C 233.630 210.893,233.315 210.975,233.700 211.076 M183.061 339.500 C 182.893 339.773,196.142 339.767,211.400 339.487 C 214.700 339.427,209.716 339.338,200.324 339.289 C 190.932 339.240,183.164 339.335,183.061 339.500 M186.118 387.498 C 187.833 387.573,190.533 387.572,192.118 387.497 C 193.703 387.421,192.300 387.359,189.000 387.360 C 185.700 387.361,184.403 387.422,186.118 387.498 " stroke="none" fill="#264e57" fill-rule="evenodd"></path><path id="path6" d="M164.732 30.700 C 184.384 30.757,216.424 30.757,235.932 30.700 C 255.439 30.643,239.360 30.596,200.200 30.596 C 161.040 30.596,145.079 30.643,164.732 30.700 M124.806 32.594 C 124.063 33.361,123.532 34.055,123.627 34.136 C 123.722 34.217,124.446 33.590,125.236 32.742 C 127.026 30.820,126.650 30.691,124.806 32.594 M273.233 31.300 C 273.325 31.355,273.940 31.850,274.600 32.400 L 275.800 33.400 274.830 32.300 C 274.297 31.695,273.682 31.200,273.464 31.200 C 273.245 31.200,273.142 31.245,273.233 31.300 M123.395 95.600 C 123.395 128.930,123.442 142.565,123.500 125.900 C 123.558 109.235,123.558 81.965,123.500 65.300 C 123.442 48.635,123.395 62.270,123.395 95.600 M276.595 95.600 C 276.595 128.710,276.642 142.255,276.700 125.700 C 276.758 109.145,276.758 82.055,276.700 65.500 C 276.642 48.945,276.595 62.490,276.595 95.600 M107.800 50.000 C 107.650 50.473,107.617 50.950,107.727 51.060 C 107.837 51.170,108.050 50.873,108.200 50.400 C 108.350 49.927,108.383 49.450,108.273 49.340 C 108.163 49.230,107.950 49.527,107.800 50.000 M164.300 160.700 C 183.935 160.757,216.065 160.757,235.700 160.700 C 255.335 160.643,239.270 160.596,200.000 160.596 C 160.730 160.596,144.665 160.643,164.300 160.700 M163.200 169.206 C 162.778 169.482,163.015 169.523,164.000 169.342 C 165.725 169.025,166.051 168.798,164.767 168.806 C 164.235 168.809,163.530 168.989,163.200 169.206 M227.200 169.206 C 226.778 169.482,227.015 169.523,228.000 169.342 C 229.725 169.025,230.051 168.798,228.767 168.806 C 228.235 168.809,227.530 168.989,227.200 169.206 M182.825 175.031 C 183.581 175.928,184.281 176.597,184.380 176.517 C 184.479 176.438,183.860 175.704,183.005 174.887 L 181.450 173.400 182.825 175.031 M247.914 176.204 C 248.141 176.647,248.748 177.366,249.263 177.802 C 250.167 178.566,250.165 178.552,249.206 177.397 C 247.613 175.479,247.479 175.355,247.914 176.204 M109.235 182.900 C 109.328 182.955,110.033 183.540,110.802 184.200 L 112.200 185.400 111.025 184.100 C 110.379 183.385,109.674 182.800,109.458 182.800 C 109.243 182.800,109.143 182.845,109.235 182.900 M188.942 189.800 C 188.941 191.780,189.008 192.640,189.092 191.712 C 189.176 190.784,189.177 189.164,189.095 188.112 C 189.012 187.060,188.943 187.820,188.942 189.800 M252.944 190.000 C 252.944 192.090,253.012 192.945,253.094 191.900 C 253.176 190.855,253.176 189.145,253.094 188.100 C 253.012 187.055,252.944 187.910,252.944 190.000 M146.931 189.800 C 146.933 191.340,147.005 191.921,147.092 191.091 C 147.179 190.261,147.177 189.001,147.089 188.291 C 147.000 187.581,146.929 188.260,146.931 189.800 M210.928 190.000 C 210.928 191.430,211.001 192.015,211.089 191.300 C 211.178 190.585,211.178 189.415,211.089 188.700 C 211.001 187.985,210.928 188.570,210.928 190.000 M119.222 191.100 C 119.234 191.265,119.819 191.838,120.522 192.374 L 121.800 193.349 120.625 192.074 C 119.403 190.749,119.185 190.597,119.222 191.100 M124.022 195.087 C 124.048 195.451,128.398 198.949,128.565 198.740 C 128.627 198.663,127.625 197.739,126.339 196.687 C 125.052 195.635,124.010 194.915,124.022 195.087 M131.222 201.100 C 131.234 201.265,131.819 201.838,132.522 202.374 L 133.800 203.349 132.625 202.074 C 131.403 200.749,131.185 200.597,131.222 201.100 M150.791 202.388 C 151.257 203.041,151.842 203.702,152.091 203.856 C 152.341 204.011,152.041 203.476,151.425 202.668 C 150.088 200.915,149.584 200.692,150.791 202.388 M214.800 202.264 C 214.800 202.482,215.295 203.097,215.900 203.630 L 217.000 204.600 216.000 203.400 C 215.450 202.740,214.955 202.125,214.900 202.033 C 214.845 201.942,214.800 202.045,214.800 202.264 M134.600 203.963 C 135.426 204.917,137.600 206.592,137.600 206.275 C 137.600 206.177,136.745 205.409,135.700 204.568 C 134.655 203.728,134.160 203.455,134.600 203.963 M142.833 210.900 C 142.925 210.955,143.540 211.450,144.200 212.000 L 145.400 213.000 144.430 211.900 C 143.897 211.295,143.282 210.800,143.064 210.800 C 142.845 210.800,142.742 210.845,142.833 210.900 M167.300 211.076 C 167.685 211.176,168.315 211.176,168.700 211.076 C 169.085 210.975,168.770 210.893,168.000 210.893 C 167.230 210.893,166.915 210.975,167.300 211.076 M231.300 211.076 C 231.685 211.176,232.315 211.176,232.700 211.076 C 233.085 210.975,232.770 210.893,232.000 210.893 C 231.230 210.893,230.915 210.975,231.300 211.076 M149.086 216.078 C 151.801 218.371,152.279 218.639,150.219 216.713 C 149.108 215.675,148.059 214.820,147.886 214.813 C 147.713 214.806,148.253 215.375,149.086 216.078 M152.917 219.064 C 153.261 219.623,157.200 222.954,157.200 222.686 C 157.200 222.582,156.172 221.620,154.916 220.549 C 153.660 219.477,152.761 218.809,152.917 219.064 M157.600 223.029 C 157.600 223.311,158.017 223.679,160.100 225.233 C 161.863 226.549,161.368 225.834,159.400 224.221 C 158.410 223.410,157.600 222.874,157.600 223.029 M163.527 228.200 C 164.181 228.750,164.838 229.200,164.988 229.200 C 165.139 229.200,164.727 228.750,164.073 228.200 C 163.419 227.650,162.762 227.200,162.612 227.200 C 162.461 227.200,162.873 227.650,163.527 228.200 M169.300 241.464 C 168.585 241.754,168.565 326.005,169.280 326.720 C 169.647 327.087,176.945 327.177,200.180 327.104 L 230.600 327.008 200.000 326.804 L 169.400 326.600 169.400 284.200 L 169.400 241.800 200.098 241.698 L 230.796 241.595 230.901 284.198 L 231.005 326.800 231.003 284.100 L 231.000 241.400 200.400 241.330 C 183.570 241.292,169.575 241.352,169.300 241.464 M182.880 339.280 C 182.336 339.824,182.159 387.004,182.700 387.338 C 182.865 387.440,183.000 376.696,183.000 363.462 L 183.000 339.400 200.000 339.193 L 217.000 338.987 200.180 338.893 C 187.525 338.823,183.241 338.919,182.880 339.280 M217.388 363.600 C 217.388 376.910,217.438 382.355,217.500 375.700 C 217.561 369.045,217.561 358.155,217.500 351.500 C 217.438 344.845,217.388 350.290,217.388 363.600 " stroke="none" fill="#14344d" fill-rule="evenodd"></path><path id="path7" d="M135.794 95.400 C 135.794 124.220,135.842 135.951,135.900 121.469 C 135.958 106.987,135.958 83.407,135.900 69.069 C 135.842 54.731,135.794 66.580,135.794 95.400 M264.194 95.400 C 264.194 124.220,264.242 135.951,264.300 121.469 C 264.358 106.987,264.358 83.407,264.300 69.069 C 264.242 54.731,264.194 66.580,264.194 95.400 M149.300 59.033 C 148.585 59.597,148.000 60.315,148.000 60.629 C 148.000 60.943,147.820 61.200,147.600 61.200 C 146.881 61.200,147.068 128.984,147.790 130.381 C 149.470 133.629,154.200 134.242,156.931 131.565 L 158.600 129.929 158.734 114.965 L 158.867 100.000 172.214 100.000 C 187.535 100.000,188.898 99.830,190.858 97.677 L 192.200 96.203 192.331 81.001 C 192.481 63.681,192.343 61.379,191.072 59.974 C 189.258 57.967,189.613 58.000,169.505 58.004 L 150.600 58.009 149.300 59.033 M202.863 59.537 C 201.660 60.740,201.269 61.491,201.063 62.993 C 200.720 65.497,200.720 125.703,201.063 128.207 C 201.732 133.085,207.532 135.083,210.862 131.583 L 212.400 129.966 212.400 115.616 C 212.400 107.723,212.509 100.981,212.643 100.633 C 213.012 99.670,240.988 99.670,241.357 100.633 C 241.491 100.981,241.600 107.759,241.600 115.695 L 241.600 130.125 243.169 131.662 C 245.054 133.511,247.977 133.821,250.281 132.416 C 252.934 130.799,252.800 132.770,252.800 95.220 L 252.800 61.200 251.200 59.600 C 249.007 57.407,245.112 57.319,243.015 59.415 C 241.679 60.752,241.600 61.590,241.600 74.380 C 241.600 86.618,241.566 87.190,240.826 87.586 C 239.662 88.209,213.508 88.148,212.880 87.520 C 212.526 87.166,212.400 83.636,212.400 74.120 L 212.400 61.200 210.800 59.600 C 208.449 57.249,205.177 57.223,202.863 59.537 M180.026 69.614 C 181.107 70.192,181.240 87.345,180.167 87.757 C 179.342 88.074,160.258 88.074,159.433 87.757 C 158.611 87.442,158.467 70.493,159.280 69.680 C 159.902 69.058,178.874 68.997,180.026 69.614 M166.731 148.300 C 183.524 148.358,210.884 148.358,227.531 148.300 C 244.179 148.242,230.440 148.195,197.000 148.195 C 163.560 148.195,149.939 148.242,166.731 148.300 M164.600 181.952 C 161.925 183.179,159.325 186.365,159.724 187.927 C 159.831 188.349,160.014 188.087,160.213 187.224 C 161.229 182.820,167.244 180.422,171.745 182.626 C 173.839 183.651,174.329 184.174,175.659 186.800 C 176.049 187.570,176.375 187.946,176.384 187.635 C 176.503 183.407,169.154 179.863,164.600 181.952 M228.600 181.965 C 226.494 183.006,225.908 183.511,224.651 185.362 C 223.604 186.906,223.239 188.270,224.000 187.800 C 224.220 187.664,224.400 187.199,224.400 186.766 C 224.400 184.646,229.129 181.600,232.420 181.600 C 235.139 181.600,239.600 184.873,239.600 186.868 C 239.600 187.244,239.780 187.664,240.000 187.800 C 240.828 188.312,240.353 186.822,239.100 184.973 C 236.814 181.601,232.078 180.244,228.600 181.965 M176.509 190.000 C 176.509 190.990,176.587 191.395,176.682 190.900 C 176.778 190.405,176.778 189.595,176.682 189.100 C 176.587 188.605,176.509 189.010,176.509 190.000 M240.460 189.506 C 240.284 193.345,237.724 196.992,234.600 197.856 C 233.297 198.217,233.193 198.308,234.040 198.349 C 237.113 198.499,241.222 192.970,240.695 189.393 L 240.520 188.200 240.460 189.506 M159.293 190.000 C 159.293 190.770,159.375 191.085,159.476 190.700 C 159.576 190.315,159.576 189.685,159.476 189.300 C 159.375 188.915,159.293 189.230,159.293 190.000 M159.612 192.000 C 159.612 192.330,159.787 192.870,160.000 193.200 C 160.345 193.733,160.388 193.733,160.388 193.200 C 160.388 192.870,160.213 192.330,160.000 192.000 C 159.655 191.467,159.612 191.467,159.612 192.000 M223.628 192.108 C 223.596 192.906,225.152 195.530,226.146 196.355 C 227.085 197.134,226.956 196.429,226.010 195.608 C 225.575 195.231,224.868 194.130,224.438 193.162 C 224.008 192.193,223.644 191.719,223.628 192.108 M175.692 193.107 C 175.446 193.814,174.784 194.852,174.222 195.414 C 173.010 196.626,172.842 197.248,174.013 196.188 C 175.163 195.148,176.496 192.889,176.303 192.310 C 176.214 192.041,175.939 192.400,175.692 193.107 M160.714 194.604 C 160.940 195.047,161.544 195.767,162.056 196.204 C 163.131 197.124,162.583 196.251,161.051 194.605 L 160.301 193.800 160.714 194.604 M163.605 197.372 C 163.938 197.708,164.838 198.078,165.605 198.195 C 167.012 198.410,166.939 198.357,164.400 197.329 C 163.146 196.822,163.063 196.826,163.605 197.372 M170.800 197.656 C 169.078 198.395,169.061 198.419,170.395 198.205 C 171.162 198.083,172.055 197.716,172.380 197.391 C 173.093 196.678,173.067 196.682,170.800 197.656 M227.605 197.372 C 227.938 197.708,228.838 198.078,229.605 198.195 C 231.012 198.410,230.939 198.357,228.400 197.329 C 227.146 196.822,227.063 196.826,227.605 197.372 " stroke="none" fill="#948c54" fill-rule="evenodd"></path><path id="path8" d="M264.710 94.738 C 264.771 123.262,264.722 147.006,264.602 147.502 L 264.384 148.405 199.830 148.302 C 164.325 148.246,135.360 148.335,135.462 148.500 C 135.958 149.303,264.354 148.833,264.786 148.026 C 265.271 147.120,265.384 43.361,264.900 43.062 C 264.735 42.960,264.650 66.214,264.710 94.738 M134.994 98.800 C 134.994 125.530,135.042 136.465,135.100 123.100 C 135.158 109.735,135.158 87.865,135.100 74.500 C 135.042 61.135,134.994 72.070,134.994 98.800 M167.300 181.076 C 167.685 181.176,168.315 181.176,168.700 181.076 C 169.085 180.975,168.770 180.893,168.000 180.893 C 167.230 180.893,166.915 180.975,167.300 181.076 M231.300 181.076 C 231.685 181.176,232.315 181.176,232.700 181.076 C 233.085 180.975,232.770 180.893,232.000 180.893 C 231.230 180.893,230.915 180.975,231.300 181.076 M162.900 182.374 C 162.009 183.019,161.143 183.784,160.975 184.074 C 160.808 184.363,161.105 184.214,161.635 183.742 C 162.166 183.270,163.230 182.506,164.000 182.043 C 164.770 181.581,165.202 181.202,164.960 181.201 C 164.718 181.201,163.791 181.728,162.900 182.374 M172.000 182.043 C 172.770 182.506,173.834 183.270,174.365 183.742 C 174.895 184.214,175.192 184.363,175.025 184.074 C 174.622 183.377,171.601 181.200,171.040 181.201 C 170.798 181.202,171.230 181.581,172.000 182.043 M226.900 182.374 C 226.009 183.019,225.143 183.784,224.975 184.074 C 224.808 184.363,225.105 184.214,225.635 183.742 C 226.166 183.270,227.230 182.506,228.000 182.043 C 228.770 181.581,229.202 181.202,228.960 181.201 C 228.718 181.201,227.791 181.728,226.900 182.374 M236.000 182.043 C 236.770 182.506,237.834 183.270,238.365 183.742 C 238.895 184.214,239.192 184.363,239.025 184.074 C 238.622 183.377,235.601 181.200,235.040 181.201 C 234.798 181.202,235.230 181.581,236.000 182.043 M159.467 186.267 C 159.320 186.413,159.211 186.908,159.225 187.367 C 159.249 188.133,159.282 188.123,159.634 187.242 C 160.026 186.263,159.944 185.789,159.467 186.267 M223.247 192.400 C 223.226 193.396,224.013 194.800,224.593 194.800 C 224.761 194.800,224.683 194.542,224.421 194.226 C 224.159 193.910,223.792 193.145,223.607 192.526 C 223.277 191.427,223.268 191.424,223.247 192.400 M176.446 192.676 C 176.421 193.158,176.220 193.664,176.000 193.800 C 175.780 193.936,175.600 194.257,175.600 194.513 C 175.600 194.769,175.883 194.575,176.228 194.082 C 176.573 193.589,176.774 192.873,176.674 192.493 C 176.537 191.967,176.482 192.011,176.446 192.676 M239.902 193.704 L 239.205 195.400 239.994 194.400 C 240.635 193.586,241.107 191.988,240.700 192.004 C 240.645 192.006,240.286 192.771,239.902 193.704 M160.000 194.120 C 160.000 195.604,164.076 198.824,165.872 198.759 C 166.984 198.719,166.981 198.714,165.698 198.409 C 163.992 198.004,161.986 196.607,160.884 195.055 C 160.398 194.371,160.000 193.950,160.000 194.120 M174.800 195.594 C 174.800 196.179,171.808 198.052,170.306 198.408 L 169.000 198.718 170.200 198.749 C 170.975 198.769,172.072 198.287,173.300 197.386 C 174.928 196.191,175.699 195.200,175.000 195.200 C 174.890 195.200,174.800 195.377,174.800 195.594 M224.800 195.496 C 224.800 195.958,226.336 197.397,226.575 197.158 C 226.669 197.065,226.307 196.567,225.773 196.052 C 225.238 195.537,224.800 195.287,224.800 195.496 M237.351 196.873 C 236.444 197.537,235.094 198.224,234.351 198.399 C 233.055 198.705,233.046 198.720,234.128 198.759 C 235.168 198.797,238.406 196.960,239.003 195.995 C 239.347 195.439,239.208 195.513,237.351 196.873 M227.800 198.133 C 228.240 198.486,229.140 198.762,229.800 198.746 L 231.000 198.718 229.800 198.409 C 229.140 198.238,228.240 197.962,227.800 197.796 L 227.000 197.492 227.800 198.133 " stroke="none" fill="#3c3824" fill-rule="evenodd"></path></g></svg>