<svg id="svg" version="1.1" xmlns="http://www.w3.org/2000/svg" xmlns:xlink="http://www.w3.org/1999/xlink" width="400" height="800" viewBox="0, 0, 400,800"><g id="svgg"><path id="path0" d="M173.222 269.900 C 153.216 269.982,147.371 270.117,147.122 270.503 C 146.867 270.897,146.731 270.894,146.469 270.488 C 146.233 270.124,145.920 270.382,145.378 271.388 C 144.960 272.165,144.513 272.800,144.385 272.800 C 144.256 272.800,143.854 273.835,143.490 275.100 C 140.222 286.473,139.860 293.460,139.403 354.000 C 139.226 377.384,139.283 390.161,139.584 394.400 C 140.418 406.138,141.813 416.555,142.797 418.395 C 143.019 418.809,143.215 419.564,143.232 420.074 C 143.292 421.787,144.916 424.214,145.909 424.075 C 146.541 423.986,146.808 424.160,146.828 424.675 C 146.853 425.320,146.891 425.312,147.174 424.600 L 147.492 423.800 147.700 424.600 C 147.847 425.167,147.921 425.211,147.954 424.749 C 147.996 424.152,152.683 424.085,204.624 423.934 C 251.764 423.798,261.304 423.679,261.583 423.227 C 261.846 422.802,261.961 422.849,262.113 423.442 C 262.278 424.084,262.314 424.063,262.354 423.300 C 262.379 422.805,262.580 422.400,262.800 422.400 C 263.020 422.400,263.200 422.130,263.200 421.800 C 263.200 421.470,263.335 421.199,263.500 421.197 C 263.947 421.192,264.800 419.174,264.800 418.120 C 264.800 417.614,264.980 417.200,265.200 417.200 C 265.420 417.200,265.603 416.705,265.606 416.100 C 265.609 415.495,265.865 413.920,266.175 412.600 C 266.844 409.751,267.782 402.611,268.434 395.400 C 268.782 391.559,268.834 378.279,268.634 344.600 C 268.348 296.443,268.149 291.263,266.196 281.000 C 265.861 279.240,265.480 277.237,265.349 276.549 C 264.920 274.294,262.587 270.237,261.552 269.947 C 260.640 269.691,228.254 269.674,173.222 269.900 M256.600 321.036 C 261.222 323.450,261.981 329.989,258.025 333.318 C 255.449 335.485,257.666 335.400,203.800 335.400 L 153.800 335.400 151.874 334.452 C 145.943 331.531,146.434 322.813,152.655 320.583 C 155.610 319.523,254.529 319.954,256.600 321.036 " stroke="none" fill="#ebc30e" fill-rule="evenodd"></path><path id="path1" d="M145.312 104.191 C 142.739 106.402,138.968 111.261,138.670 112.750 C 137.493 118.636,138.749 291.143,139.996 294.800 C 140.283 295.642,140.342 295.508,140.368 293.954 C 140.408 291.635,141.840 281.139,142.408 279.000 C 143.483 274.955,144.170 272.800,144.385 272.800 C 144.513 272.800,144.960 272.165,145.378 271.388 C 145.920 270.382,146.233 270.124,146.469 270.488 C 146.714 270.867,146.878 270.880,147.100 270.539 C 147.464 269.980,259.507 269.343,261.350 269.890 C 264.184 270.730,266.110 277.339,267.558 291.200 L 268.248 297.800 268.521 290.800 C 268.671 286.950,269.020 277.950,269.297 270.800 C 269.652 261.634,269.800 236.269,269.800 184.800 L 269.800 111.800 266.684 108.116 C 261.989 102.566,262.081 102.611,256.675 103.188 C 251.796 103.708,151.668 103.552,148.600 103.019 C 147.149 102.767,146.843 102.876,145.312 104.191 M256.110 203.539 C 260.218 206.093,259.829 211.775,255.393 214.000 L 253.400 215.000 204.400 215.000 C 157.955 215.000,155.302 214.962,153.511 214.271 C 147.841 212.083,147.810 205.007,153.462 202.980 C 154.743 202.521,163.327 202.443,204.800 202.514 L 254.600 202.600 256.110 203.539 " stroke="none" fill="#fc0d04" fill-rule="evenodd"></path><path id="path2" d="M126.950 596.707 C 56.797 666.352,105.552 784.800,204.372 784.800 C 287.114 784.800,340.086 697.309,301.730 624.000 C 296.694 614.376,290.991 606.635,282.646 598.097 C 277.570 592.904,274.413 590.321,278.313 594.552 C 282.408 598.995,286.400 605.672,286.400 608.079 C 286.400 610.385,288.089 610.284,245.267 610.550 C 210.099 610.768,205.788 610.863,204.562 611.445 C 202.935 612.217,202.393 613.687,203.348 614.742 C 203.701 615.133,204.106 616.071,204.248 616.826 C 204.389 617.582,204.820 618.740,205.204 619.400 C 205.588 620.060,206.132 621.320,206.412 622.200 C 206.692 623.080,207.148 624.160,207.426 624.600 C 209.080 627.224,211.689 635.574,213.487 644.000 C 215.231 652.170,214.218 666.173,211.258 674.800 C 201.664 702.769,178.977 718.179,153.849 713.797 C 118.290 707.596,95.611 662.761,109.995 627.097 C 111.787 622.654,117.473 611.738,118.828 610.140 C 119.173 609.733,120.236 608.050,121.190 606.400 C 123.707 602.046,127.174 597.337,130.431 593.850 C 134.898 589.067,133.447 590.257,126.950 596.707 " stroke="none" fill="#14fb07" fill-rule="evenodd"></path><path id="path3" d="M268.265 396.797 C 267.917 401.688,266.861 409.680,266.175 412.600 C 265.865 413.920,265.609 415.495,265.606 416.100 C 265.603 416.705,265.420 417.200,265.200 417.200 C 264.980 417.200,264.800 417.614,264.800 418.120 C 264.800 419.174,263.947 421.192,263.500 421.197 C 263.335 421.199,263.200 421.470,263.200 421.800 C 263.200 422.130,263.020 422.400,262.800 422.400 C 262.580 422.400,262.379 422.805,262.354 423.300 C 262.314 424.063,262.278 424.084,262.113 423.442 C 261.961 422.849,261.846 422.802,261.583 423.227 C 261.304 423.679,251.764 423.798,204.624 423.934 C 152.674 424.085,147.998 424.152,147.972 424.749 C 147.951 425.242,147.867 425.206,147.626 424.600 L 147.308 423.800 147.100 424.600 C 146.921 425.293,146.887 425.303,146.846 424.675 C 146.814 424.164,146.537 423.987,145.909 424.075 C 144.916 424.214,143.292 421.787,143.232 420.074 C 143.215 419.564,143.019 418.809,142.797 418.395 C 141.987 416.881,141.109 411.006,139.838 398.600 C 139.081 391.214,140.561 496.589,141.388 509.000 C 142.769 529.721,144.648 543.600,146.073 543.600 C 146.253 543.600,146.400 543.870,146.400 544.200 C 146.400 544.530,146.580 544.800,146.800 544.800 C 147.020 544.800,147.200 545.070,147.200 545.400 C 147.200 545.929,151.811 546.000,186.300 546.000 C 237.297 545.999,260.800 545.663,260.800 544.935 C 260.800 544.641,261.042 544.400,261.338 544.400 C 261.984 544.400,263.747 538.663,264.350 534.600 C 266.571 519.625,267.512 500.129,267.979 459.400 C 268.194 440.700,268.485 418.155,268.626 409.300 C 268.879 393.473,268.769 389.687,268.265 396.797 M253.600 439.223 C 261.852 440.546,263.806 450.261,256.600 454.139 L 255.000 455.000 205.400 455.110 C 171.375 455.185,155.172 455.085,153.800 454.793 C 144.781 452.868,145.217 440.752,154.361 439.205 C 157.259 438.715,250.536 438.732,253.600 439.223 " stroke="none" fill="#92fc0b" fill-rule="evenodd"></path><path id="path4" d="M154.423 619.232 C 118.695 623.567,108.283 671.518,138.170 694.085 C 164.500 713.965,199.710 695.274,199.741 661.400 C 199.764 636.514,178.104 616.360,154.423 619.232 " stroke="none" fill="#95fc8c" fill-rule="evenodd"></path><path id="path5" d="M159.690 1.598 C 138.474 13.163,122.605 35.085,117.848 59.400 C 115.629 70.740,115.827 46.689,115.702 320.576 L 115.588 570.953 110.468 575.840 C 41.624 641.555,61.236 759.581,147.354 797.818 L 152.267 800.000 204.098 800.000 L 255.929 800.000 259.168 798.614 C 325.588 770.185,356.769 692.271,329.527 622.800 C 322.466 604.792,309.688 586.347,295.600 573.823 L 293.000 571.512 292.778 322.056 C 292.536 49.434,292.732 71.189,290.407 59.554 C 285.529 35.147,270.389 14.051,248.972 1.818 L 245.800 0.006 204.200 0.009 L 162.600 0.011 159.690 1.598 M210.810 23.214 C 233.756 26.020,254.079 45.001,258.997 68.221 C 259.321 69.749,259.589 71.540,259.593 72.200 L 259.600 73.400 204.104 73.313 C 167.555 73.255,148.563 73.089,148.475 72.826 C 147.932 71.195,151.245 60.181,153.807 55.101 C 164.903 33.099,187.639 20.381,210.810 23.214 M201.200 103.481 C 239.082 103.618,253.351 103.542,256.675 103.188 C 262.081 102.611,261.989 102.566,266.684 108.116 L 269.800 111.800 270.041 182.600 C 270.178 222.922,270.473 258.221,270.727 264.600 C 271.213 276.809,271.752 300.998,272.437 341.400 C 272.717 357.850,272.827 406.186,272.739 473.000 L 272.600 578.600 273.511 580.576 C 274.197 582.063,276.433 584.540,282.542 590.576 C 320.288 627.877,329.476 679.498,306.570 725.580 C 267.323 804.538,156.974 811.095,108.411 737.354 C 77.454 690.348,84.661 630.535,126.151 590.140 C 132.322 584.132,133.795 582.476,134.694 580.540 L 135.779 578.200 135.590 505.200 C 135.211 359.321,135.663 307.757,137.805 252.400 C 138.243 241.074,138.388 222.293,138.397 175.728 C 138.404 141.808,138.527 113.464,138.672 112.741 C 139.362 109.290,146.193 102.601,148.600 103.019 C 149.480 103.172,173.150 103.380,201.200 103.481 M153.462 202.980 C 147.810 205.007,147.841 212.083,153.511 214.271 C 155.302 214.962,157.955 215.000,204.400 215.000 L 253.400 215.000 255.393 214.000 C 259.829 211.775,260.218 206.093,256.110 203.539 L 254.600 202.600 204.800 202.514 C 163.327 202.443,154.743 202.521,153.462 202.980 M154.925 324.041 C 151.257 325.102,151.075 329.553,154.639 331.042 C 156.847 331.965,251.922 331.864,253.876 330.937 C 257.040 329.436,256.869 325.238,253.600 324.123 C 251.866 323.531,156.958 323.453,154.925 324.041 M157.000 443.462 C 156.560 443.555,155.836 443.707,155.392 443.800 C 150.900 444.739,152.275 449.661,157.245 450.432 C 162.344 451.223,251.974 450.724,253.488 449.896 C 257.071 447.937,256.035 444.441,251.625 443.605 C 249.567 443.214,158.818 443.078,157.000 443.462 M155.758 562.450 C 151.574 563.403,150.891 567.875,154.687 569.462 C 156.820 570.353,251.364 570.248,253.604 569.352 C 256.796 568.075,256.950 564.578,253.888 562.904 C 252.418 562.101,159.187 561.669,155.758 562.450 " stroke="none" fill="#050404" fill-rule="evenodd"></path><path id="path6" d="M267.090 502.600 C 265.951 526.102,263.433 544.400,261.338 544.400 C 261.042 544.400,260.800 544.641,260.800 544.935 C 260.800 545.663,237.297 545.999,186.300 546.000 C 151.811 546.000,147.200 545.929,147.200 545.400 C 147.200 545.070,147.020 544.800,146.800 544.800 C 146.580 544.800,146.400 544.530,146.400 544.200 C 146.400 543.870,146.253 543.600,146.073 543.600 C 144.648 543.600,142.727 529.193,141.219 507.200 C 140.979 503.696,140.946 512.336,141.125 531.800 C 141.628 586.582,142.309 581.564,133.064 591.148 C 127.627 596.785,124.216 601.166,121.190 606.400 C 120.236 608.050,119.173 609.733,118.828 610.140 C 117.473 611.738,111.787 622.654,109.995 627.097 C 95.611 662.761,118.290 707.596,153.849 713.797 C 178.977 718.179,201.664 702.769,211.258 674.800 C 214.218 666.173,215.231 652.170,213.487 644.000 C 211.689 635.574,209.080 627.224,207.426 624.600 C 207.148 624.160,206.692 623.080,206.412 622.200 C 206.132 621.320,205.588 620.060,205.204 619.400 C 204.820 618.740,204.389 617.582,204.248 616.826 C 204.106 616.071,203.701 615.133,203.348 614.742 C 202.393 613.687,202.935 612.217,204.562 611.445 C 205.788 610.863,210.099 610.768,245.267 610.550 C 288.089 610.284,286.400 610.385,286.400 608.079 C 286.400 604.910,281.690 597.954,274.210 590.075 C 266.157 581.593,266.639 585.198,267.216 537.816 C 267.681 499.667,267.650 491.044,267.090 502.600 M256.485 557.571 C 264.642 560.615,264.350 572.449,256.057 574.860 C 252.817 575.802,154.496 575.643,151.770 574.691 C 143.060 571.649,144.185 559.046,153.331 557.213 C 156.427 556.593,254.777 556.933,256.485 557.571 M166.776 619.866 C 200.855 626.711,211.623 673.418,184.004 694.591 C 161.260 712.025,128.157 697.874,121.569 667.899 C 115.258 639.188,138.743 614.235,166.776 619.866 " stroke="none" fill="#5efb1c" fill-rule="evenodd"></path><path id="path7" d="M137.686 255.800 C 135.600 314.234,135.213 360.233,135.590 505.200 L 135.779 578.200 134.694 580.540 C 133.795 582.476,132.322 584.132,126.151 590.140 C 84.661 630.535,77.454 690.348,108.411 737.354 C 156.974 811.095,267.323 804.538,306.570 725.580 C 329.476 679.498,320.288 627.877,282.542 590.576 C 276.433 584.540,274.197 582.063,273.511 580.576 L 272.600 578.600 272.600 457.800 C 272.600 372.472,272.453 330.834,272.099 316.000 C 270.605 253.371,270.350 245.493,269.936 249.200 C 269.029 257.328,268.601 291.554,268.597 356.200 C 268.595 393.820,268.370 441.790,268.097 462.800 C 266.928 552.785,266.750 575.383,267.187 578.120 C 268.056 583.556,268.711 584.473,278.966 594.595 C 303.527 618.837,314.091 642.963,314.171 675.000 C 314.346 744.289,251.367 796.134,183.044 782.945 C 116.816 770.160,77.650 701.561,100.349 638.105 C 106.899 619.795,115.617 607.231,133.460 590.388 C 140.626 583.623,141.295 581.861,141.359 569.600 C 141.405 560.767,140.629 493.409,139.941 446.600 C 139.689 429.440,139.546 392.450,139.624 364.400 C 139.701 336.350,139.772 308.990,139.782 303.600 C 139.797 295.515,139.447 281.604,138.287 244.200 C 138.239 242.660,137.969 247.880,137.686 255.800 M152.655 320.583 C 146.434 322.813,145.943 331.531,151.874 334.452 L 153.800 335.400 203.800 335.400 C 257.666 335.400,255.449 335.485,258.025 333.318 C 261.981 329.989,261.222 323.450,256.600 321.036 C 254.529 319.954,155.610 319.523,152.655 320.583 M253.600 324.123 C 256.869 325.238,257.040 329.436,253.876 330.937 C 251.922 331.864,156.847 331.965,154.639 331.042 C 151.075 329.553,151.257 325.102,154.925 324.041 C 156.958 323.453,251.866 323.531,253.600 324.123 M154.361 439.205 C 145.217 440.752,144.781 452.868,153.800 454.793 C 155.172 455.085,171.375 455.185,205.400 455.110 L 255.000 455.000 256.600 454.139 C 263.806 450.261,261.852 440.546,253.600 439.223 C 250.536 438.732,157.259 438.715,154.361 439.205 M251.625 443.605 C 256.035 444.441,257.071 447.937,253.488 449.896 C 251.974 450.724,162.344 451.223,157.245 450.432 C 152.275 449.661,150.900 444.739,155.392 443.800 C 155.836 443.707,156.560 443.555,157.000 443.462 C 158.818 443.078,249.567 443.214,251.625 443.605 M153.331 557.213 C 144.185 559.046,143.060 571.649,151.770 574.691 C 154.496 575.643,252.817 575.802,256.057 574.860 C 264.350 572.449,264.642 560.615,256.485 557.571 C 254.777 556.933,156.427 556.593,153.331 557.213 M253.888 562.904 C 256.950 564.578,256.796 568.075,253.604 569.352 C 251.364 570.248,156.820 570.353,154.687 569.462 C 150.891 567.875,151.574 563.403,155.758 562.450 C 159.187 561.669,252.418 562.101,253.888 562.904 " stroke="none" fill="#388a04" fill-rule="evenodd"></path><path id="path8" d="" stroke="none" fill="#583c7c" fill-rule="evenodd"></path></g></svg>